<svg width="141" height="141" viewBox="0 0 141 141" fill="none" xmlns="http://www.w3.org/2000/svg">
<path d="M45.098 95.6996C56.0616 99.4065 60.6472 95.8833 62.8531 95.486C63.4282 91.0361 57.2286 83.3387 47.8954 79.4971C38.5623 75.6556 30.8828 78.4609 28.2097 80.3437C34.555 83.1321 38.5809 93.496 45.098 95.6996Z" fill="#CF5311"/>
<path d="M45.1125 95.704C56.0761 99.411 60.6617 95.8877 62.8677 95.4905C63.4428 91.0405 57.2431 83.3431 47.91 79.5016C44.7091 78.1841 42.2062 77.8305 40.1911 78.0104C36.3556 78.353 36.4565 84.8537 38.3117 88.2281C40.0113 91.3196 41.5504 94.4996 45.1125 95.704Z" fill="#FF7F3A" stroke="#CF5311"/>
<path d="M48.883 96.5C51.2994 93.3285 51.0496 90.6667 50.883 89H70.8812V111.5C70.3812 112 68.6812 113 65.8812 113C63.0812 113 61.3812 111.667 60.8812 111C58.3812 112.5 54.8812 113 52.3812 110.5C50.6589 108.778 48.3663 107.778 47.4674 105.106C46.6705 102.736 46.9676 99.0138 48.883 96.5Z" fill="#FF7F3A" stroke="#CF5311"/>
<path d="M63.9219 108.5V112.384" stroke="#CF5311"/>
<path d="M67.4219 108.5V112.559" stroke="#CF5311"/>
<path d="M54.4219 109.5L54.4241 111.654" stroke="#CF5311"/>
<path d="M57.4219 109.5V111.86" stroke="#CF5311"/>
<path d="M60.4219 107.499C59.4219 106.166 56.8219 104.299 54.4219 107.499" stroke="#CF5311"/>
<path d="M57.9219 100C58.7552 100.667 60.4219 102.7 60.4219 105.5C60.4219 108.3 60.7693 109.565 60.9359 110.899" stroke="#CF5311"/>
<path d="M93.0936 96.5C90.6771 93.3285 90.9269 90.6667 91.0936 89H71.0954V111.5C71.5954 112 73.2954 113 76.0954 113C78.8954 113 80.5954 111.667 81.0954 111C83.5954 112.5 87.0954 113 89.5954 110.5C91.3176 108.778 93.6103 107.778 94.5091 105.106C95.3061 102.736 95.009 99.0138 93.0936 96.5Z" fill="#FF7F3A" stroke="#CF5311"/>
<path d="M78.0547 108.5V112.384" stroke="#CF5311"/>
<path d="M74.5547 108.5V112.559" stroke="#CF5311"/>
<path d="M87.5547 109.5L87.5525 111.654" stroke="#CF5311"/>
<path d="M84.5547 109.5V111.86" stroke="#CF5311"/>
<path d="M81.5547 107.499C82.5547 106.166 85.1547 104.299 87.5547 107.499" stroke="#CF5311"/>
<path d="M84.0547 100C83.2214 100.667 81.5547 102.7 81.5547 105.5C81.5547 108.3 81.2073 109.565 81.0406 110.899" stroke="#CF5311"/>
<path d="M53.2184 78C50.5842 82.1666 47.0943 90.2996 54.2063 89.5C54.0415 90.6667 54.5027 93.5 57.6638 95.5C61.6153 98 64.5789 94.5 71 101C77.4211 94.5 80.3847 98 84.3362 95.5C87.4973 93.5 87.9585 90.6667 87.7937 89.5C94.9057 90.2996 91.4158 82.1666 88.7816 78L71 81L53.2184 78Z" fill="#FFF5D7" stroke="#CF5311"/>
<path d="M61.3938 86.8701C59.258 89.273 58.2072 94.7499 62.1672 96.605" stroke="#CF5311"/>
<path d="M92.4772 20.9985C98.8697 22.9892 98.1372 41.0708 96.9719 49.8627L74.4958 38.4166C80.8883 21.6952 89.1469 19.8373 92.4772 20.9985Z" fill="#CF5311"/>
<path d="M48.5228 20.9985C42.1303 22.9892 42.8628 41.0708 44.0281 49.8627L66.5042 38.4166C60.1117 21.6952 51.8531 19.8373 48.5228 20.9985Z" fill="#CF5311"/>
<path d="M49.0249 24.4824C46.2282 26.4731 46.8608 39.2463 47.5267 45.3841C41.1341 50.1616 40.2039 57.6597 40.5377 60.8115C39.3414 60.4134 37.7087 60.6456 37.0418 60.8115C36.675 62.639 38.8054 64.0473 40.1876 64.6509C38.784 64.2119 37.8493 65.5184 37.5412 66.2858C45.1315 79.0243 62.6744 81.8784 70.5 81.7132C78.3256 81.8784 95.8685 79.0243 103.459 66.2858C103.151 65.5184 102.216 64.2119 100.812 64.6509C102.195 64.0473 104.325 62.639 103.958 60.8115C103.291 60.6456 101.659 60.4134 100.462 60.8115C100.796 57.6597 99.8659 50.1616 93.4733 45.3841C94.1392 39.2463 94.7718 26.4731 91.9751 24.4824C90.3103 24.6483 85.8821 27.966 81.4872 39.9099C79.9877 38.7491 75.5583 36.9256 70.3691 36.9239C65.1774 36.9239 61.0129 38.7486 59.5128 39.9099C55.1179 27.966 50.6897 24.6483 49.0249 24.4824Z" fill="#FF7F3A" stroke="#CF5311" stroke-linejoin="round"/>
<path d="M71.0031 54C67.8365 54.1667 61.6031 55.6 62.0031 60C62.403 64.3986 68 65 71 65C74 65 79.5974 64.3986 79.9973 60C80.397 55.6026 74.1715 54.1681 71.0031 54Z" fill="#FFF5D7"/>
<path d="M68.7069 53.1485C67.941 53.2516 67.732 54.1405 68.3135 54.6493L70.3415 56.4238C70.7185 56.7537 71.2815 56.7537 71.6585 56.4238L73.6865 54.6493C74.268 54.1405 74.059 53.2516 73.2931 53.1485C72.6748 53.0652 71.9026 53 71 53C70.0974 53 69.3252 53.0652 68.7069 53.1485Z" fill="black"/>
<ellipse cx="2" cy="3" rx="2" ry="3" transform="matrix(-1 0 0 1 79 48)" fill="black"/>
<ellipse cx="2" cy="3" rx="2" ry="3" transform="matrix(-1 0 0 1 67 48)" fill="black"/>
<path d="M71.0938 56.0508C71.1835 57.9864 72.4701 61.0782 76.8984 57.9604" stroke="black"/>
<path d="M70.8047 56.0508C70.7149 57.9864 69.4283 61.0782 65 57.9604" stroke="black"/>
<path d="M77.6604 96.938C78.6732 96.5964 80.3746 95.0669 80.0313 92.335" stroke="#CF5311"/>
<path d="M87.7531 89.1251C87.5266 87.804 87.1171 85.0486 83.6057 84.3691" stroke="#CF5311"/>
</svg>
