<svg width="141" height="141" viewBox="0 0 141 141" fill="none" xmlns="http://www.w3.org/2000/svg">
<path d="M103.389 66.6598C93.7808 73.1113 88.432 70.9134 86.199 71.1084C84.4775 66.9648 88.4424 57.9113 96.442 51.7574C104.442 45.6036 112.588 46.2975 115.661 47.4137C110.269 51.768 109.101 62.8249 103.389 66.6598Z" fill="#FF3E4E"/>
<path d="M103.098 66.2529C98.3555 69.4373 94.6933 70.4686 91.9657 70.741C90.5985 70.8775 89.4532 70.8251 88.5031 70.7486C88.0528 70.7123 87.5733 70.6635 87.21 70.6358C86.975 70.6179 86.748 70.6064 86.5333 70.6055C86.2535 69.7266 86.2104 68.6027 86.4287 67.2928C86.6734 65.8248 87.2387 64.1601 88.1096 62.419C89.8514 58.9367 92.7936 55.1933 96.7341 52.162C99.4299 50.0882 101.68 49.1332 103.575 48.7958C104.364 48.6552 105.03 48.8715 105.597 49.3411C106.179 49.8228 106.666 50.5807 107.029 51.5122C107.756 53.3802 107.921 55.7862 107.494 57.5531C106.649 61.044 106.026 64.2871 103.098 66.2529Z" fill="#FFF9F6" stroke="#FF3E4E"/>
<path d="M78.8099 44.0094C76.9736 55.4361 71.7179 57.8483 70.3374 59.6141C66.1331 58.0467 62.2172 48.9718 63.1738 38.9245C64.1304 28.8771 70.1945 23.3934 73.107 21.9075C72.6129 28.8208 79.9015 37.217 78.8099 44.0094Z" fill="#FF3E4E"/>
<path d="M78.314 43.9448C77.4076 49.5849 75.6638 52.9663 74.0024 55.1467C73.1697 56.2395 72.3501 57.0414 71.6461 57.6839C71.3124 57.9884 70.9497 58.3058 70.6816 58.5526C70.5082 58.7122 70.3449 58.8704 70.1979 59.0267C69.3643 58.6318 68.5131 57.8968 67.7041 56.8436C66.7975 55.6633 65.9658 54.1144 65.2867 52.29C63.9284 48.641 63.1978 43.9361 63.669 38.9869C63.9914 35.6011 64.8278 33.3043 65.8736 31.6886C66.3094 31.0152 66.9214 30.6763 67.6518 30.5817C68.4011 30.4847 69.2875 30.6453 70.216 31.0156C72.078 31.758 73.9501 33.2784 74.9506 34.7961C76.9271 37.7951 78.8733 40.4631 78.314 43.9448Z" fill="#FFF9F6" stroke="#FF3E4E"/>
<path d="M96.4339 66.0637C87.0475 72.834 87.2514 78.6132 86.2932 80.6395C89.5811 83.6928 99.4481 83.1182 107.997 77.7531C116.545 72.3881 118.723 64.5077 118.744 61.2381C112.788 64.7829 102.013 62.0392 96.4339 66.0637Z" fill="#FF3E4E"/>
<path d="M96.7143 66.4779C92.0813 69.8197 89.8425 72.8959 88.64 75.3592C88.0372 76.5939 87.6886 77.6861 87.4305 78.6036C87.3082 79.0385 87.1875 79.5052 87.0873 79.8555C87.0224 80.0821 86.9544 80.299 86.8807 80.5006C87.6078 81.0681 88.6467 81.4988 89.9509 81.7489C91.4126 82.0292 93.17 82.0771 95.1051 81.865C98.9756 81.4407 103.508 79.9815 107.719 77.3387C110.6 75.5307 112.276 73.7524 113.251 72.0925C113.657 71.4008 113.685 70.7018 113.442 70.0066C113.192 69.2935 112.65 68.5736 111.903 67.9101C110.404 66.5796 108.205 65.5892 106.399 65.3765C102.832 64.9565 99.5743 64.4151 96.7143 66.4779Z" fill="#FFF9F6" stroke="#FF3E4E"/>
<path d="M102.502 92.264C91.1759 94.645 87.0403 90.6029 84.897 89.9469C84.8536 85.4602 91.9221 78.5521 101.645 75.8442C111.368 73.1363 118.66 76.8322 121.091 79.0187C114.46 81.0352 109.234 90.8487 102.502 92.264Z" fill="#FF3E4E"/>
<path d="M102.384 91.778C96.7939 92.9532 93.0121 92.5371 90.3811 91.7675C89.0624 91.3818 88.0201 90.9041 87.168 90.4771C86.7641 90.2747 86.3378 90.0498 86.0114 89.888C85.8002 89.7833 85.594 89.6875 85.3953 89.6063C85.4653 88.6866 85.8464 87.6285 86.5397 86.4958C87.3166 85.2264 88.4645 83.8948 89.9244 82.6069C92.8442 80.031 96.9747 77.6629 101.764 76.329C105.04 75.4165 107.484 75.3742 109.368 75.7714C110.152 75.937 110.688 76.3868 111.038 77.0348C111.397 77.6995 111.565 78.5847 111.552 79.5842C111.526 81.5885 110.778 83.8812 109.72 85.3591C107.628 88.2792 105.835 91.0523 102.384 91.778Z" fill="#FFF9F6" stroke="#FF3E4E"/>
<path d="M47.8376 55.5339C54.7436 64.821 52.8055 70.2693 53.1076 72.4903C49.0516 74.4091 39.818 70.8841 33.2865 63.1897C26.7551 55.4952 27.0565 47.3249 28.0236 44.2016C32.6322 49.3783 43.7325 50.0135 47.8376 55.5339Z" fill="#FF3E4E"/>
<path d="M47.4453 55.8446C50.854 60.4286 52.0602 64.0369 52.4635 66.7483C52.6655 68.1073 52.6684 69.2539 52.6376 70.2064C52.6229 70.658 52.5973 71.1393 52.5871 71.5035C52.5805 71.7391 52.5799 71.9664 52.5894 72.1809C51.7249 72.5026 50.6045 72.5997 49.2856 72.4447C47.8074 72.2709 46.1175 71.7863 44.3366 71.0001C40.7745 69.4277 36.894 66.669 33.6766 62.8788C31.4756 60.2858 30.4135 58.0844 29.9854 56.2079C29.807 55.4259 29.9911 54.751 30.4329 54.1617C30.886 53.5571 31.6196 53.0341 32.5326 52.6271C34.3634 51.811 36.7588 51.5303 38.5441 51.8723C42.0716 52.5482 45.3409 53.015 47.4453 55.8446Z" fill="#FFF9F6" stroke="#FF3E4E"/>
<path d="M97.9134 89.6982C86.6234 92.2436 84.5437 97.6395 82.8674 99.1275C84.694 103.226 93.9954 106.568 103.964 104.987C113.932 103.405 119.027 97.0111 120.328 94.0116C113.459 94.9358 104.624 88.1852 97.9134 89.6982Z" fill="#FF3E4E"/>
<path d="M98.0088 90.189C92.4362 91.4453 89.1701 93.3967 87.0976 95.1908C86.0588 96.0901 85.3096 96.958 84.7123 97.7007C84.4292 98.0528 84.135 98.4346 83.9054 98.7175C83.7569 98.9005 83.6093 99.0734 83.4624 99.2299C83.9085 100.037 84.6952 100.841 85.7968 101.583C87.0313 102.414 88.629 103.147 90.4923 103.711C94.2189 104.839 98.9602 105.275 103.87 104.496C107.23 103.963 109.47 102.985 111.017 101.841C111.662 101.364 111.962 100.732 112.011 99.9969C112.061 99.2431 111.845 98.3684 111.418 97.4648C110.561 95.6528 108.927 93.8791 107.349 92.9753C104.233 91.1895 101.449 89.4136 98.0088 90.189Z" fill="#FFF9F6" stroke="#FF3E4E"/>
<path d="M38.8377 84.5348C49.9692 87.7022 54.3773 83.9593 56.5612 83.4548C56.9184 78.9821 50.3504 71.5965 40.8409 68.2152C31.3313 64.8339 23.7979 68.0106 21.2199 70.0217C27.6937 72.497 32.2208 82.6521 38.8377 84.5348Z" fill="#FF3E4E"/>
<path d="M38.9889 84.0585C44.4833 85.6219 48.2849 85.4713 50.9632 84.8877C52.3057 84.5951 53.3788 84.1915 54.2587 83.8252C54.6758 83.6515 55.1168 83.457 55.4537 83.3184C55.6717 83.2288 55.8841 83.1477 56.088 83.0806C56.0825 82.1582 55.7763 81.076 55.164 79.8976C54.4777 78.5769 53.4258 77.1683 52.0596 75.7815C49.3271 73.0077 45.3724 70.3564 40.6881 68.6908C37.4835 67.5513 35.0485 67.3382 33.1421 67.6027C32.3477 67.713 31.7818 68.1243 31.3872 68.7462C30.9824 69.3842 30.7533 70.2554 30.6962 71.2534C30.5817 73.2546 31.168 75.594 32.1203 77.1424C34.0023 80.2016 35.5973 83.0933 38.9889 84.0585Z" fill="#FFF9F6" stroke="#FF3E4E"/>
<path d="M41.405 78.5872C52.4595 82.0135 54.108 87.5564 55.6619 89.1717C53.5183 93.1135 43.9827 95.7132 34.17 93.352C24.3573 90.9908 19.7817 84.2152 18.7205 81.1226C25.4954 82.5847 34.8339 76.5505 41.405 78.5872Z" fill="#FF3E4E"/>
<path d="M41.2711 79.0691C46.7275 80.7602 49.8299 82.9627 51.7547 84.9143C52.7194 85.8926 53.398 86.8168 53.9349 87.6043C54.1895 87.9775 54.4526 88.3813 54.6592 88.6814C54.7929 88.8756 54.9265 89.0595 55.0606 89.2271C54.5523 89.9968 53.7048 90.7361 52.5482 91.3888C51.2521 92.1202 49.6016 92.7257 47.6997 93.1413C43.8958 93.9725 39.135 94.0335 34.3013 92.8704C30.9946 92.0747 28.8384 90.9234 27.3859 89.6606C26.7807 89.1343 26.5313 88.4807 26.5404 87.7443C26.5498 86.9888 26.8336 86.1338 27.3308 85.2666C28.328 83.5277 30.0967 81.8882 31.7402 81.1113C34.9874 79.5765 37.9029 78.0253 41.2711 79.0691Z" fill="#FFF9F6" stroke="#FF3E4E"/>
<path d="M44.2947 105.178C55.4269 102.014 57.2055 96.5111 58.7971 94.9328C56.747 90.9415 47.2753 88.1179 37.4096 90.2472C27.544 92.3765 22.81 99.0423 21.6762 102.109C28.4837 100.807 37.6774 107.06 44.2947 105.178Z" fill="#FF3E4E"/>
<path d="M44.1723 104.694C49.667 103.132 52.8204 101.003 54.7907 99.0973C55.7782 98.142 56.4784 97.234 57.0338 96.4595C57.297 96.0923 57.5696 95.6948 57.7833 95.3997C57.9214 95.2087 58.0593 95.028 58.1974 94.8636C57.7073 94.0822 56.8775 93.3231 55.7366 92.6433C54.4581 91.8815 52.8223 91.2374 50.9308 90.7771C47.1475 89.8564 42.3894 89.6832 37.5297 90.7321C34.2051 91.4496 32.0225 92.5498 30.5406 93.778C29.9231 94.2899 29.6584 94.9374 29.6501 95.6739C29.6417 96.4294 29.9053 97.2908 30.3819 98.1695C31.3378 99.9314 33.0674 101.612 34.6921 102.428C37.9023 104.038 40.7804 105.658 44.1723 104.694Z" fill="#FFF9F6" stroke="#FF3E4E"/>
<path d="M48.883 96.5C51.2994 93.3285 51.0496 90.6667 50.883 89H70.8812V111.5C70.3812 112 68.6812 113 65.8812 113C63.0812 113 61.3812 111.667 60.8812 111C58.3812 112.5 54.8812 113 52.3812 110.5C50.6589 108.778 48.3663 107.778 47.4674 105.106C46.6705 102.736 46.9676 99.0138 48.883 96.5Z" fill="#FFF9F6" stroke="#FF3E4E"/>
<path d="M63.9219 108.5V112.384" stroke="#FF3E4E"/>
<path d="M67.4219 108.5V112.559" stroke="#FF3E4E"/>
<path d="M54.4219 109.5L54.4241 111.654" stroke="#FF3E4E"/>
<path d="M57.4219 109.5V111.86" stroke="#FF3E4E"/>
<path d="M60.4219 107.499C59.4219 106.166 56.8219 104.299 54.4219 107.499" stroke="#FF3E4E"/>
<path d="M57.9219 100C58.7552 100.667 60.4219 102.7 60.4219 105.5C60.4219 108.3 60.7693 109.565 60.9359 110.899" stroke="#FF3E4E"/>
<path d="M93.0936 96.5C90.6771 93.3285 90.9269 90.6667 91.0936 89H71.0954V111.5C71.5954 112 73.2954 113 76.0954 113C78.8954 113 80.5954 111.667 81.0954 111C83.5954 112.5 87.0954 113 89.5954 110.5C91.3176 108.778 93.6103 107.778 94.5091 105.106C95.3061 102.736 95.009 99.0138 93.0936 96.5Z" fill="#FFF9F6" stroke="#FF3E4E"/>
<path d="M78.0547 108.5V112.384" stroke="#FF3E4E"/>
<path d="M74.5547 108.5V112.559" stroke="#FF3E4E"/>
<path d="M87.5547 109.5L87.5525 111.654" stroke="#FF3E4E"/>
<path d="M84.5547 109.5V111.86" stroke="#FF3E4E"/>
<path d="M81.5547 107.499C82.5547 106.166 85.1547 104.299 87.5547 107.499" stroke="#FF3E4E"/>
<path d="M84.0547 100C83.2214 100.667 81.5547 102.7 81.5547 105.5C81.5547 108.3 81.2073 109.565 81.0406 110.899" stroke="#FF3E4E"/>
<path d="M53.2184 78C50.5842 82.1666 47.0943 90.2996 54.2063 89.5C54.0415 90.6667 54.5027 93.5 57.6638 95.5C61.6153 98 64.5789 94.5 71 101C77.4211 94.5 80.3847 98 84.3362 95.5C87.4973 93.5 87.9585 90.6667 87.7937 89.5C94.9057 90.2996 91.4158 82.1666 88.7816 78L71 81L53.2184 78Z" fill="#FFE6D7" stroke="#FF3E4E"/>
<path d="M61.3938 86.8701C59.258 89.273 58.2072 94.7499 62.1672 96.605" stroke="#FF3E4E"/>
<path d="M92.4772 20.9985C98.8697 22.9892 98.1372 41.0708 96.9719 49.8627L74.4958 38.4166C80.8883 21.6952 89.1469 19.8373 92.4772 20.9985Z" fill="#FF3E4E"/>
<path d="M48.5228 20.9985C42.1303 22.9892 42.8628 41.0708 44.0281 49.8627L66.5042 38.4166C60.1117 21.6952 51.8531 19.8373 48.5228 20.9985Z" fill="#FF3E4E"/>
<path d="M49.0249 24.4824C46.2282 26.4731 46.8608 39.2463 47.5267 45.3841C41.1341 50.1616 40.2039 57.6597 40.5377 60.8115C39.3414 60.4134 37.7087 60.6456 37.0418 60.8115C36.675 62.639 38.8054 64.0473 40.1876 64.6509C38.784 64.2119 37.8493 65.5184 37.5412 66.2858C45.1315 79.0243 62.6744 81.8784 70.5 81.7132C78.3256 81.8784 95.8685 79.0243 103.459 66.2858C103.151 65.5184 102.216 64.2119 100.812 64.6509C102.195 64.0473 104.325 62.639 103.958 60.8115C103.291 60.6456 101.659 60.4134 100.462 60.8115C100.796 57.6597 99.8659 50.1616 93.4733 45.3841C94.1392 39.2463 94.7718 26.4731 91.9751 24.4824C90.3103 24.6483 85.8821 27.966 81.4872 39.9099C79.9877 38.7491 75.5583 36.9256 70.3691 36.9239C65.1774 36.9239 61.0129 38.7486 59.5128 39.9099C55.1179 27.966 50.6897 24.6483 49.0249 24.4824Z" fill="#FFF9F6" stroke="#FF3E4E" stroke-linejoin="round"/>
<path d="M71.0031 54C67.8365 54.1667 61.6031 55.6 62.0031 60C62.403 64.3986 68 65 71 65C74 65 79.5974 64.3986 79.9973 60C80.397 55.6026 74.1715 54.1681 71.0031 54Z" fill="#FFE6D7"/>
<path d="M68.7069 53.1485C67.941 53.2516 67.732 54.1405 68.3135 54.6493L70.3415 56.4238C70.7185 56.7537 71.2815 56.7537 71.6585 56.4238L73.6865 54.6493C74.268 54.1405 74.059 53.2516 73.2931 53.1485C72.6748 53.0652 71.9026 53 71 53C70.0974 53 69.3252 53.0652 68.7069 53.1485Z" fill="black"/>
<ellipse cx="2" cy="3" rx="2" ry="3" transform="matrix(-1 0 0 1 79 48)" fill="black"/>
<ellipse cx="2" cy="3" rx="2" ry="3" transform="matrix(-1 0 0 1 67 48)" fill="black"/>
<path d="M71.0938 56.0508C71.1835 57.9864 72.4701 61.0782 76.8984 57.9604" stroke="black"/>
<path d="M70.8047 56.0508C70.7149 57.9864 69.4283 61.0782 65 57.9604" stroke="black"/>
<path d="M77.6604 96.938C78.6732 96.5964 80.3746 95.0669 80.0313 92.335" stroke="#FF3E4E"/>
<path d="M87.7531 89.1251C87.5266 87.804 87.1171 85.0486 83.6057 84.3691" stroke="#FF3E4E"/>
</svg>
