<svg width="141" height="141" viewBox="0 0 141 141" fill="none" xmlns="http://www.w3.org/2000/svg">
<path d="M39.8858 92.2268C51.3206 94.0123 55.2391 89.7595 57.3452 88.9923C57.154 84.5094 49.7338 77.9804 39.8828 75.7846C30.0317 73.5889 22.9422 77.6611 20.6289 79.9717C27.3563 81.6386 33.0887 91.1654 39.8858 92.2268Z" fill="#CF5311"/>
<path d="M39.9777 91.7348C45.6218 92.6161 49.3766 92.0028 51.9637 91.0968C53.2604 90.6426 54.2763 90.111 55.1049 89.6401C55.4977 89.4168 55.9117 89.1699 56.2292 88.9913C56.4346 88.8757 56.6355 88.7693 56.8297 88.6778C56.7118 87.763 56.2758 86.7262 55.5243 85.6314C54.682 84.4043 53.466 83.1346 51.9409 81.9248C48.8903 79.5051 44.6416 77.3562 39.7891 76.2746C36.4694 75.5347 34.0267 75.6202 32.1668 76.1154C31.3917 76.3217 30.8802 76.799 30.5645 77.4644C30.2406 78.147 30.1194 79.0397 30.1845 80.0372C30.3151 82.0374 31.1824 84.2878 32.3166 85.7084C34.5577 88.5151 36.4936 91.1907 39.9777 91.7348Z" fill="#FF7F3A" stroke="#CF5311"/>
<path d="M44.2947 105.178C55.4269 102.014 57.2055 96.5111 58.7971 94.9328C56.747 90.9415 47.2753 88.1179 37.4096 90.2472C27.544 92.3765 22.81 99.0423 21.6762 102.109C28.4837 100.807 37.6774 107.06 44.2947 105.178Z" fill="#CF5311"/>
<path d="M44.1723 104.694C49.667 103.132 52.8204 101.003 54.7907 99.0973C55.7782 98.142 56.4784 97.234 57.0338 96.4595C57.297 96.0923 57.5696 95.6948 57.7833 95.3997C57.9214 95.2087 58.0593 95.028 58.1974 94.8636C57.7073 94.0822 56.8775 93.3231 55.7366 92.6433C54.4581 91.8815 52.8223 91.2374 50.9308 90.7771C47.1475 89.8564 42.3894 89.6832 37.5297 90.7321C34.2051 91.4496 32.0225 92.5498 30.5406 93.778C29.9231 94.2899 29.6584 94.9374 29.6501 95.6739C29.6417 96.4294 29.9053 97.2908 30.3819 98.1695C31.3378 99.9314 33.0674 101.612 34.6921 102.428C37.9023 104.038 40.7804 105.658 44.1723 104.694Z" fill="#FF7F3A" stroke="#CF5311"/>
<path d="M48.883 96.5C51.2994 93.3285 51.0496 90.6667 50.883 89H70.8812V111.5C70.3812 112 68.6812 113 65.8812 113C63.0812 113 61.3812 111.667 60.8812 111C58.3812 112.5 54.8812 113 52.3812 110.5C50.6589 108.778 48.3663 107.778 47.4674 105.106C46.6705 102.736 46.9676 99.0138 48.883 96.5Z" fill="#FF7F3A" stroke="#CF5311"/>
<path d="M63.9219 108.5V112.384" stroke="#CF5311"/>
<path d="M67.4219 108.5V112.559" stroke="#CF5311"/>
<path d="M54.4219 109.5L54.4241 111.654" stroke="#CF5311"/>
<path d="M57.4219 109.5V111.86" stroke="#CF5311"/>
<path d="M60.4219 107.499C59.4219 106.166 56.8219 104.299 54.4219 107.499" stroke="#CF5311"/>
<path d="M57.9219 100C58.7552 100.667 60.4219 102.7 60.4219 105.5C60.4219 108.3 60.7693 109.565 60.9359 110.899" stroke="#CF5311"/>
<path d="M93.0936 96.5C90.6771 93.3285 90.9269 90.6667 91.0936 89H71.0954V111.5C71.5954 112 73.2954 113 76.0954 113C78.8954 113 80.5954 111.667 81.0954 111C83.5954 112.5 87.0954 113 89.5954 110.5C91.3176 108.778 93.6103 107.778 94.5091 105.106C95.3061 102.736 95.009 99.0138 93.0936 96.5Z" fill="#FF7F3A" stroke="#CF5311"/>
<path d="M78.0547 108.5V112.384" stroke="#CF5311"/>
<path d="M74.5547 108.5V112.559" stroke="#CF5311"/>
<path d="M87.5547 109.5L87.5525 111.654" stroke="#CF5311"/>
<path d="M84.5547 109.5V111.86" stroke="#CF5311"/>
<path d="M81.5547 107.499C82.5547 106.166 85.1547 104.299 87.5547 107.499" stroke="#CF5311"/>
<path d="M84.0547 100C83.2214 100.667 81.5547 102.7 81.5547 105.5C81.5547 108.3 81.2073 109.565 81.0406 110.899" stroke="#CF5311"/>
<path d="M53.2184 78C50.5842 82.1666 47.0943 90.2996 54.2063 89.5C54.0415 90.6667 54.5027 93.5 57.6638 95.5C61.6153 98 64.5789 94.5 71 101C77.4211 94.5 80.3847 98 84.3362 95.5C87.4973 93.5 87.9585 90.6667 87.7937 89.5C94.9057 90.2996 91.4158 82.1666 88.7816 78L71 81L53.2184 78Z" fill="#FFF5D7" stroke="#CF5311"/>
<path d="M61.3938 86.8701C59.258 89.273 58.2072 94.7499 62.1672 96.605" stroke="#CF5311"/>
<path d="M92.4772 20.9985C98.8697 22.9892 98.1372 41.0708 96.9719 49.8627L74.4958 38.4166C80.8883 21.6952 89.1469 19.8373 92.4772 20.9985Z" fill="#CF5311"/>
<path d="M48.5228 20.9985C42.1303 22.9892 42.8628 41.0708 44.0281 49.8627L66.5042 38.4166C60.1117 21.6952 51.8531 19.8373 48.5228 20.9985Z" fill="#CF5311"/>
<path d="M49.0249 24.4824C46.2282 26.4731 46.8608 39.2463 47.5267 45.3841C41.1341 50.1616 40.2039 57.6597 40.5377 60.8115C39.3414 60.4134 37.7087 60.6456 37.0418 60.8115C36.675 62.639 38.8054 64.0473 40.1876 64.6509C38.784 64.2119 37.8493 65.5184 37.5412 66.2858C45.1315 79.0243 62.6744 81.8784 70.5 81.7132C78.3256 81.8784 95.8685 79.0243 103.459 66.2858C103.151 65.5184 102.216 64.2119 100.812 64.6509C102.195 64.0473 104.325 62.639 103.958 60.8115C103.291 60.6456 101.659 60.4134 100.462 60.8115C100.796 57.6597 99.8659 50.1616 93.4733 45.3841C94.1392 39.2463 94.7718 26.4731 91.9751 24.4824C90.3103 24.6483 85.8821 27.966 81.4872 39.9099C79.9877 38.7491 75.5583 36.9256 70.3691 36.9239C65.1774 36.9239 61.0129 38.7486 59.5128 39.9099C55.1179 27.966 50.6897 24.6483 49.0249 24.4824Z" fill="#FF7F3A" stroke="#CF5311" stroke-linejoin="round"/>
<path d="M71.0031 54C67.8365 54.1667 61.6031 55.6 62.0031 60C62.403 64.3986 68 65 71 65C74 65 79.5974 64.3986 79.9973 60C80.397 55.6026 74.1715 54.1681 71.0031 54Z" fill="#FFF5D7"/>
<path d="M68.7069 53.1485C67.941 53.2516 67.732 54.1405 68.3135 54.6493L70.3415 56.4238C70.7185 56.7537 71.2815 56.7537 71.6585 56.4238L73.6865 54.6493C74.268 54.1405 74.059 53.2516 73.2931 53.1485C72.6748 53.0652 71.9026 53 71 53C70.0974 53 69.3252 53.0652 68.7069 53.1485Z" fill="black"/>
<ellipse cx="2" cy="3" rx="2" ry="3" transform="matrix(-1 0 0 1 79 48)" fill="black"/>
<ellipse cx="2" cy="3" rx="2" ry="3" transform="matrix(-1 0 0 1 67 48)" fill="black"/>
<path d="M71.0938 56.0508C71.1835 57.9864 72.4701 61.0782 76.8984 57.9604" stroke="black"/>
<path d="M70.8047 56.0508C70.7149 57.9864 69.4283 61.0782 65 57.9604" stroke="black"/>
<path d="M77.6604 96.938C78.6732 96.5964 80.3746 95.0669 80.0313 92.335" stroke="#CF5311"/>
<path d="M87.7531 89.1251C87.5266 87.804 87.1171 85.0486 83.6057 84.3691" stroke="#CF5311"/>
</svg>
