<svg width="141" height="141" viewBox="0 0 141 141" fill="none" xmlns="http://www.w3.org/2000/svg">
<path d="M93.93 68.2671C86.0188 76.7143 87.3289 82.3467 86.7777 84.5194C90.5909 86.8842 100.164 84.4251 107.523 77.518C114.882 70.6108 115.506 62.4588 114.898 59.2462C109.734 63.869 98.6326 63.2459 93.93 68.2671Z" fill="#FF7869"/>
<path d="M94.2848 68.6194C90.3799 72.7888 88.7737 76.2378 88.0667 78.8862C87.7123 80.2137 87.58 81.3526 87.5029 82.3025C87.4664 82.7528 87.4376 83.234 87.4065 83.597C87.3864 83.8318 87.3613 84.0578 87.3277 84.2698C88.1503 84.6871 89.2526 84.9102 90.5806 84.9052C92.0689 84.8995 93.8027 84.609 95.6611 84.0291C99.378 82.8693 103.545 80.5667 107.17 77.1643C109.65 74.8366 110.954 72.7693 111.592 70.9532C111.857 70.1964 111.751 69.505 111.378 68.8695C110.996 68.2177 110.327 67.6151 109.466 67.1075C107.739 66.0898 105.39 65.5402 103.578 65.6783C99.9965 65.9512 96.6954 66.0457 94.2848 68.6194Z" fill="#FFCFAA" stroke="#FF7869"/>
<path d="M102.88 93.5783C91.6992 96.5665 87.3518 92.7533 85.1762 92.2138C84.8909 87.7359 91.5767 80.4567 101.139 77.2285C110.702 74.0003 118.183 77.2977 120.729 79.3499C114.216 81.7209 109.526 91.802 102.88 93.5783Z" fill="#FF7869"/>
<path d="M102.737 93.099C97.2178 94.5739 93.4191 94.3623 90.7505 93.7357C89.4129 93.4217 88.3463 93.0009 87.4725 92.6204C87.0582 92.4401 86.6204 92.2385 86.2857 92.0946C86.0692 92.0014 85.8582 91.9169 85.6554 91.8466C85.6756 90.9244 85.9992 89.8472 86.6303 88.6788C87.3377 87.3694 88.4122 85.9778 89.8004 84.6131C92.5771 81.8835 96.5739 79.2961 101.284 77.7059C104.507 76.6181 106.945 76.444 108.847 76.7392C109.639 76.8622 110.199 77.2825 110.583 77.9107C110.978 78.555 111.193 79.4299 111.234 80.4286C111.316 82.4314 110.692 84.7611 109.715 86.294C107.784 89.3226 106.143 92.1883 102.737 93.099Z" fill="#FFCFAA" stroke="#FF7869"/>
<path d="M50.3691 62.4285C57.2751 71.7155 55.337 77.1638 55.6391 79.3848C51.5831 81.3037 42.3495 77.7787 35.818 70.0842C29.2866 62.3897 29.588 54.2195 30.5551 51.0961C35.1637 56.2728 46.264 56.908 50.3691 62.4285Z" fill="#FF7869"/>
<path d="M49.9768 62.7391C53.3855 67.3231 54.5917 70.9315 54.995 73.6428C55.197 75.0018 55.1998 76.1484 55.169 77.101C55.1544 77.5525 55.1288 78.0338 55.1186 78.398C55.112 78.6337 55.1114 78.861 55.1209 79.0754C54.2564 79.3972 53.136 79.4943 51.8171 79.3392C50.3389 79.1654 48.649 78.6808 46.8681 77.8947C43.306 76.3223 39.4254 73.5635 36.2081 69.7733C34.0071 67.1804 32.945 64.9789 32.5169 63.1024C32.3385 62.3205 32.5226 61.6456 32.9644 61.0562C33.4175 60.4517 34.1511 59.9287 35.0641 59.5217C36.8949 58.7056 39.2902 58.4248 41.0756 58.7668C44.6031 59.4427 47.8724 59.9096 49.9768 62.7391Z" fill="#FFCFAA" stroke="#FF7869"/>
<path d="M96.1377 87.5341C84.8478 90.0795 82.7681 95.4754 81.0918 96.9634C82.9184 101.062 92.2198 104.404 102.188 102.823C112.156 101.241 117.251 94.847 118.552 91.8475C111.683 92.7718 102.849 86.0211 96.1377 87.5341Z" fill="#FF7869"/>
<path d="M96.2332 88.0249C90.6605 89.2813 87.3944 91.2326 85.3219 93.0267C84.2832 93.926 83.534 94.7939 82.9367 95.5366C82.6535 95.8887 82.3594 96.2705 82.1298 96.5535C81.9813 96.7365 81.8336 96.9093 81.6867 97.0658C82.1329 97.8731 82.9196 98.6769 84.0211 99.4186C85.2557 100.25 86.8534 100.983 88.7166 101.547C92.4433 102.675 97.1846 103.111 102.095 102.332C105.454 101.799 107.694 100.821 109.241 99.6767C109.886 99.1997 110.186 98.5678 110.235 97.8329C110.285 97.079 110.07 96.2043 109.642 95.3007C108.785 93.4887 107.151 91.715 105.574 90.8112C102.457 89.0255 99.6731 87.2495 96.2332 88.0249Z" fill="#FFCFAA" stroke="#FF7869"/>
<path d="M39.7654 87.444C50.8969 90.6114 55.305 86.8685 57.489 86.364C57.8462 81.8913 51.2781 74.5057 41.7686 71.1244C32.2591 67.743 24.7257 70.9198 22.1477 72.9309C28.6215 75.4062 33.1486 85.5613 39.7654 87.444Z" fill="#FF7869"/>
<path d="M39.9166 86.9677C45.411 88.5311 49.2126 88.3805 51.8909 87.7969C53.2334 87.5043 54.3066 87.1007 55.1864 86.7343C55.6035 86.5607 56.0445 86.3661 56.3815 86.2276C56.5995 86.138 56.8118 86.0568 57.0157 85.9897C57.0103 85.0673 56.7041 83.9852 56.0917 82.8068C55.4055 81.4861 54.3535 80.0775 52.9874 78.6907C50.2548 75.9169 46.3001 73.2656 41.6158 71.6C38.4112 70.4605 35.9763 70.2474 34.0698 70.5119C33.2754 70.6222 32.7095 71.0334 32.3149 71.6554C31.9102 72.2933 31.681 73.1646 31.6239 74.1626C31.5095 76.1638 32.0957 78.5032 33.0481 80.0515C34.93 83.1107 36.525 86.0025 39.9166 86.9677Z" fill="#FFCFAA" stroke="#FF7869"/>
<path d="M41.905 80.6458C52.9595 84.0721 54.608 89.615 56.1619 91.2303C54.0183 95.1721 44.4827 97.7717 34.67 95.4105C24.8573 93.0493 20.2817 86.2738 19.2205 83.1812C25.9954 84.6433 35.3339 78.6091 41.905 80.6458Z" fill="#FF7869"/>
<path d="M41.7711 81.1276C47.2275 82.8188 50.3299 85.0213 52.2547 86.9729C53.2194 87.9512 53.898 88.8754 54.4349 89.6629C54.6895 90.0361 54.9526 90.4399 55.1592 90.74C55.2929 90.9342 55.4265 91.1181 55.5606 91.2857C55.0523 92.0554 54.2048 92.7947 53.0482 93.4474C51.7521 94.1788 50.1016 94.7843 48.1997 95.1999C44.3958 96.0311 39.635 96.0921 34.8013 94.929C31.4946 94.1333 29.3384 92.982 27.8859 91.7192C27.2807 91.1929 27.0313 90.5393 27.0404 89.8029C27.0498 89.0474 27.3336 88.1924 27.8308 87.3252C28.828 85.5863 30.5967 83.9468 32.2402 83.1699C35.4874 81.6351 38.4029 80.0839 41.7711 81.1276Z" fill="#FFCFAA" stroke="#FF7869"/>
<path d="M44.2947 105.178C55.4269 102.014 57.2055 96.5111 58.7971 94.9328C56.747 90.9415 47.2753 88.1179 37.4096 90.2472C27.544 92.3765 22.81 99.0423 21.6762 102.109C28.4837 100.807 37.6774 107.06 44.2947 105.178Z" fill="#FF7869"/>
<path d="M44.1723 104.694C49.667 103.132 52.8204 101.003 54.7907 99.0973C55.7782 98.142 56.4784 97.234 57.0338 96.4595C57.297 96.0923 57.5696 95.6948 57.7833 95.3997C57.9214 95.2087 58.0593 95.028 58.1974 94.8636C57.7073 94.0822 56.8775 93.3231 55.7366 92.6433C54.4581 91.8815 52.8223 91.2374 50.9308 90.7771C47.1475 89.8564 42.3894 89.6832 37.5297 90.7321C34.2051 91.4496 32.0225 92.5498 30.5406 93.778C29.9231 94.2899 29.6584 94.9374 29.6501 95.6739C29.6417 96.4294 29.9053 97.2908 30.3819 98.1695C31.3378 99.9314 33.0674 101.612 34.6921 102.428C37.9023 104.038 40.7804 105.658 44.1723 104.694Z" fill="#FFCFAA" stroke="#FF7869"/>
<path d="M48.883 96.5C51.2994 93.3285 51.0496 90.6667 50.883 89H70.8812V111.5C70.3812 112 68.6812 113 65.8812 113C63.0812 113 61.3812 111.667 60.8812 111C58.3812 112.5 54.8812 113 52.3812 110.5C50.6589 108.778 48.3663 107.778 47.4674 105.106C46.6705 102.736 46.9676 99.0138 48.883 96.5Z" fill="#FFCFAA" stroke="#FF7869"/>
<path d="M63.9219 108.5V112.384" stroke="#FF7869"/>
<path d="M67.4219 108.5V112.559" stroke="#FF7869"/>
<path d="M54.4219 109.5L54.4241 111.654" stroke="#FF7869"/>
<path d="M57.4219 109.5V111.86" stroke="#FF7869"/>
<path d="M60.4219 107.499C59.4219 106.166 56.8219 104.299 54.4219 107.499" stroke="#FF7869"/>
<path d="M57.9219 100C58.7552 100.667 60.4219 102.7 60.4219 105.5C60.4219 108.3 60.7693 109.565 60.9359 110.899" stroke="#FF7869"/>
<path d="M93.0936 96.5C90.6771 93.3285 90.9269 90.6667 91.0936 89H71.0954V111.5C71.5954 112 73.2954 113 76.0954 113C78.8954 113 80.5954 111.667 81.0954 111C83.5954 112.5 87.0954 113 89.5954 110.5C91.3176 108.778 93.6103 107.778 94.5091 105.106C95.3061 102.736 95.009 99.0138 93.0936 96.5Z" fill="#FFCFAA" stroke="#FF7869"/>
<path d="M78.0547 108.5V112.384" stroke="#FF7869"/>
<path d="M74.5547 108.5V112.559" stroke="#FF7869"/>
<path d="M87.5547 109.5L87.5525 111.654" stroke="#FF7869"/>
<path d="M84.5547 109.5V111.86" stroke="#FF7869"/>
<path d="M81.5547 107.499C82.5547 106.166 85.1547 104.299 87.5547 107.499" stroke="#FF7869"/>
<path d="M84.0547 100C83.2214 100.667 81.5547 102.7 81.5547 105.5C81.5547 108.3 81.2073 109.565 81.0406 110.899" stroke="#FF7869"/>
<path d="M53.2184 78C50.5842 82.1666 47.0943 90.2996 54.2063 89.5C54.0415 90.6667 54.5027 93.5 57.6638 95.5C61.6153 98 64.5789 94.5 71 101C77.4211 94.5 80.3847 98 84.3362 95.5C87.4973 93.5 87.9585 90.6667 87.7937 89.5C94.9057 90.2996 91.4158 82.1666 88.7816 78L71 81L53.2184 78Z" fill="#FFF5D7" stroke="#FF7869"/>
<path d="M61.3938 86.8701C59.258 89.273 58.2072 94.7499 62.1672 96.605" stroke="#FF7869"/>
<path d="M92.4772 20.9985C98.8697 22.9892 98.1372 41.0708 96.9719 49.8627L74.4958 38.4166C80.8883 21.6952 89.1469 19.8373 92.4772 20.9985Z" fill="#FF7869"/>
<path d="M48.5228 20.9985C42.1303 22.9892 42.8628 41.0708 44.0281 49.8627L66.5042 38.4166C60.1117 21.6952 51.8531 19.8373 48.5228 20.9985Z" fill="#FF7869"/>
<path d="M49.0249 24.4824C46.2282 26.4731 46.8608 39.2463 47.5267 45.3841C41.1341 50.1616 40.2039 57.6597 40.5377 60.8115C39.3414 60.4134 37.7087 60.6456 37.0418 60.8115C36.675 62.639 38.8054 64.0473 40.1876 64.6509C38.784 64.2119 37.8493 65.5184 37.5412 66.2858C45.1315 79.0243 62.6744 81.8784 70.5 81.7132C78.3256 81.8784 95.8685 79.0243 103.459 66.2858C103.151 65.5184 102.216 64.2119 100.812 64.6509C102.195 64.0473 104.325 62.639 103.958 60.8115C103.291 60.6456 101.659 60.4134 100.462 60.8115C100.796 57.6597 99.8659 50.1616 93.4733 45.3841C94.1392 39.2463 94.7718 26.4731 91.9751 24.4824C90.3103 24.6483 85.8821 27.966 81.4872 39.9099C79.9877 38.7491 75.5583 36.9256 70.3691 36.9239C65.1774 36.9239 61.0129 38.7486 59.5128 39.9099C55.1179 27.966 50.6897 24.6483 49.0249 24.4824Z" fill="#FFCFAA" stroke="#FF7869" stroke-linejoin="round"/>
<path d="M71.0031 54C67.8365 54.1667 61.6031 55.6 62.0031 60C62.403 64.3986 68 65 71 65C74 65 79.5974 64.3986 79.9973 60C80.397 55.6026 74.1715 54.1681 71.0031 54Z" fill="#FFF5D7"/>
<path d="M68.7069 53.1485C67.941 53.2516 67.732 54.1405 68.3135 54.6493L70.3415 56.4238C70.7185 56.7537 71.2815 56.7537 71.6585 56.4238L73.6865 54.6493C74.268 54.1405 74.059 53.2516 73.2931 53.1485C72.6748 53.0652 71.9026 53 71 53C70.0974 53 69.3252 53.0652 68.7069 53.1485Z" fill="black"/>
<ellipse cx="2" cy="3" rx="2" ry="3" transform="matrix(-1 0 0 1 79 48)" fill="black"/>
<ellipse cx="2" cy="3" rx="2" ry="3" transform="matrix(-1 0 0 1 67 48)" fill="black"/>
<path d="M71.0938 56.0508C71.1835 57.9864 72.4701 61.0782 76.8984 57.9604" stroke="black"/>
<path d="M70.8047 56.0508C70.7149 57.9864 69.4283 61.0782 65 57.9604" stroke="black"/>
<path d="M77.6604 96.938C78.6732 96.5964 80.3746 95.0669 80.0313 92.335" stroke="#FF7869"/>
<path d="M87.7531 89.1251C87.5266 87.804 87.1171 85.0486 83.6057 84.3691" stroke="#FF7869"/>
</svg>
